<svg width="1001" height="1001" viewBox="0 0 1001 1001" fill="none" xmlns="http://www.w3.org/2000/svg">
<circle cx="500.5" cy="500.5" r="500.5" fill="white"/>
<path d="M289.766 384.471H440.654V396.464H303.598V486.725H432.481V498.717H303.598V597.815H442.225V609.808H289.766V384.471ZM454.171 384.471H470.202L541.245 483.569L613.86 384.471L712.627 258.594L550.361 493.983L633.978 609.808H617.318L541.245 504.398L464.858 609.808H448.512L532.758 493.983L454.171 384.471ZM639.951 396.464V384.471H811.899V396.464H732.683V609.808H718.852V396.464H639.951ZM101 384.471H118.289L356.697 741.225L258.174 609.808L115.46 401.513L114.831 609.808H101V384.471ZM810.506 594.196C807.68 594.196 805.561 592.007 805.561 589.177C805.561 586.347 807.68 584.158 810.506 584.158C813.365 584.158 815.451 586.347 815.451 589.177C815.451 592.007 813.365 594.196 810.506 594.196ZM824.097 580.992H831.498C831.599 585 834.525 587.695 838.831 587.695C843.642 587.695 846.367 584.798 846.367 579.375V545.016H853.903V579.408C853.903 589.177 848.251 594.802 838.899 594.802C830.118 594.802 824.097 589.345 824.097 580.992ZM863.759 580.554H871.228C871.867 585.169 876.375 588.099 882.868 588.099C888.923 588.099 893.364 584.966 893.364 580.655C893.364 576.949 890.538 574.726 884.112 573.21L877.855 571.695C869.075 569.64 865.071 565.396 865.071 558.254C865.071 549.597 872.136 543.837 882.733 543.837C892.59 543.837 899.789 549.597 900.226 557.783H892.893C892.186 553.303 888.284 550.507 882.632 550.507C876.678 550.507 872.708 553.37 872.708 557.749C872.708 561.219 875.265 563.206 881.589 564.688L886.938 566.002C896.896 568.326 901 572.368 901 579.678C901 588.975 893.801 594.802 882.296 594.802C871.531 594.802 864.298 589.244 863.759 580.554Z" fill="black"/>
</svg>
